<?xml version="1.0" encoding="utf-8"?>
<!-- Generator: Adobe Illustrator 26.1.0, SVG Export Plug-In . SVG Version: 6.00 Build 0)  -->
<svg version="1.1" xmlns="http://www.w3.org/2000/svg" xmlns:xlink="http://www.w3.org/1999/xlink" x="0px" y="0px"
	 viewBox="0 0 2000 820.9" style="enable-background:new 0 0 2000 820.9;" xml:space="preserve">
<style type="text/css">
	.st0{fill:#58C2AD;}
	.st1{fill:#35B4D0;}
</style>
<g id="Cleaners">
	<g>
		<path class="st0" d="M587.8,414.4c0-67,51.3-115.4,120.2-115.4c36.5,0,68,13.1,88.8,37.5l-26.9,25.3c-16.3-17.6-36.5-26.3-60-26.3
			c-46.5,0-80.1,32.7-80.1,78.9c0,46.2,33.7,78.9,80.1,78.9c23.4,0,43.6-8.7,60-26.6l26.9,25.6c-20.8,24.4-52.3,37.5-89.1,37.5
			C639.1,529.8,587.8,481.4,587.8,414.4z"/>
		<path class="st0" d="M833.1,288.7h40.1v237.9h-40.1V288.7z"/>
		<path class="st0" d="M1086.1,453.8H951.8c4.8,25,25.6,41,55.5,41c19.2,0,34.3-6.1,46.5-18.6l21.5,24.7
			c-15.4,18.3-39.4,27.9-68.9,27.9c-57.4,0-94.6-36.9-94.6-87.8c0-51,37.5-87.5,88.5-87.5c50,0,86.6,34.9,86.6,88.5
			C1086.7,445.2,1086.4,450,1086.1,453.8z M951.4,427.2h97.1c-3.2-24.7-22.1-41.7-48.4-41.7C974.2,385.5,955.3,402.2,951.4,427.2z"
			/>
		<path class="st0" d="M1263.7,426.3v100.3h-37.8v-20.8c-9.6,14.7-28.2,23.1-53.9,23.1c-39.1,0-63.8-21.5-63.8-51.3
			c0-28.5,19.2-51,71.2-51h44.2V424c0-23.4-14.1-37.2-42.6-37.2c-19.2,0-39.1,6.4-51.9,17l-15.7-29.2c18.3-14.1,44.9-21.2,72.5-21.2
			C1235.2,353.5,1263.7,376.9,1263.7,426.3z M1223.7,473.1v-19.9h-41.4c-27.2,0-34.6,10.3-34.6,22.8c0,14.4,12.2,23.7,32.7,23.7
			C1199.9,499.7,1216.9,490.7,1223.7,473.1z"/>
		<path class="st0" d="M1483.7,428.5v98.1h-40.1v-93c0-30.5-15.1-45.2-40.7-45.2c-28.5,0-47.8,17.3-47.8,51.6v86.6h-40.1V355.4h38.1
			v22.1c13.2-15.7,34-24,59-24C1453.3,353.5,1483.7,376.9,1483.7,428.5z"/>
		<path class="st0" d="M1696.6,453.8h-134.3c4.8,25,25.6,41,55.5,41c19.2,0,34.3-6.1,46.5-18.6l21.5,24.7
			c-15.4,18.3-39.4,27.9-68.9,27.9c-57.4,0-94.6-36.9-94.6-87.8c0-51,37.5-87.5,88.5-87.5c50,0,86.6,34.9,86.6,88.5
			C1697.3,445.2,1697,450,1696.6,453.8z M1562,427.2h97.1c-3.2-24.7-22.1-41.7-48.4-41.7C1584.8,385.5,1565.8,402.2,1562,427.2z"/>
		<path class="st0" d="M1834.9,353.5v38.1c-3.5-0.6-6.4-1-9.3-1c-30.5,0-49.7,18-49.7,52.9v83h-40.1V355.4h38.1v25
			C1785.5,362.5,1806.3,353.5,1834.9,353.5z"/>
		<path class="st0" d="M1850,509.6l15.4-30.5c15.1,9.9,38.2,17,59.6,17c25.3,0,35.9-7.1,35.9-18.9c0-32.7-105.8-1.9-105.8-70.2
			c0-32.4,29.2-53.5,75.3-53.5c22.8,0,48.7,5.4,64.1,14.7l-15.4,30.5c-16.4-9.6-32.7-12.8-49.1-12.8c-24.4,0-35.9,8-35.9,19.2
			c0,34.6,105.8,3.8,105.8,70.8c0,32.1-29.5,52.9-77.6,52.9C1893.9,528.8,1865.4,520.5,1850,509.6z"/>
	</g>
</g>
<g id="een">
	<g>
		<g>
			<path class="st0" d="M950.1,146H815.8c4.8,25,25.6,41,55.5,41c19.2,0,34.3-6.1,46.5-18.6l21.5,24.7
				c-15.4,18.3-39.4,27.9-68.9,27.9c-57.4,0-94.6-36.9-94.6-87.8s37.5-87.5,88.5-87.5c50,0,86.6,34.9,86.6,88.5
				C950.8,137.3,950.4,142.1,950.1,146z M815.5,119.4h97.1c-3.2-24.7-22.1-41.7-48.4-41.7C838.2,77.7,819.3,94.4,815.5,119.4z"/>
			<path class="st0" d="M1149.6,146h-134.3c4.8,25,25.6,41,55.5,41c19.2,0,34.3-6.1,46.5-18.6l21.5,24.7
				c-15.4,18.3-39.4,27.9-68.9,27.9c-57.4,0-94.6-36.9-94.6-87.8s37.5-87.5,88.5-87.5c50,0,86.6,34.9,86.6,88.5
				C1150.2,137.3,1149.9,142.1,1149.6,146z M1014.9,119.4h97.1c-3.2-24.7-22.1-41.7-48.4-41.7C1037.7,77.7,1018.8,94.4,1014.9,119.4
				z"/>
			<path class="st0" d="M1357.4,120.7v98.1h-40.1v-93c0-30.5-15.1-45.2-40.7-45.2c-28.5,0-47.8,17.3-47.8,51.6v86.6h-40.1V47.6h38.1
				v22.1c13.2-15.7,34-24,59-24C1326.9,45.6,1357.4,69,1357.4,120.7z"/>
		</g>
	</g>
</g>
<g id="K">
	<path id="Blue" class="st1" d="M758.3,820.9H411.5c-40.4-21-83.5-67.1-100.3-99.9c46.6,42.1,99.3,72.6,140.2,81.2
		c31.6-13.2,52.8-36.6,65.8-65.5c-70.4-11.8-125.6-52.6-158.3-97.7c55.3,39.4,106.3,61.3,149.8,65.7c18.3-15.6,28.6-36.7,34.4-60
		c-78.4-6-167.4-52.2-236.7-116.9c-36.3,39.4-111.9,100.9-172.9,124.9c50.4-39.6,128.5-100.8,159.8-138
		c-33.1-18.9-108.6,3.8-108.6,3.8s-0.6,0.4-1.7,1.2c-0.3-0.5-0.6-1-1-1.5L0,307.6V0h185.9v390.3L518.1,0h224.2L403.9,398.7
		L758.3,820.9z"/>
	<g id="Green">
		<path class="st0" d="M336.7,820.9h-38.5c-31.9-34.9-60.9-79.4-70.4-109C263.9,760.5,303.2,796.9,336.7,820.9z"/>
		<path class="st0" d="M211.6,820.9H0V366.5l152.9,176.8c0.4,0.5,0.9,0.9,1.3,1.3c-0.8,0.9-1.3,1.4-1.3,1.4s-32.7,64.8-19.6,106.8
			c-0.1,0-0.1,0.1-0.3,0.1C145.2,708.8,175.3,770,211.6,820.9z"/>
	</g>
</g>
</svg>
