<?xml version="1.0" encoding="UTF-8"?><svg id="a" xmlns="http://www.w3.org/2000/svg" viewBox="0 0 2000 2085.02"><defs><style>.b{fill:#4fb19f;}.c,.d{fill:#f8d131;}.c,.e{opacity:.7;}.f{opacity:.4;}.f,.g{fill:#fff;}.g{opacity:.3;}.h{fill:#e0e0e0;}.i{fill:#231f20;opacity:.05;}.j{fill:#c4c3c3;}.k{fill:#d7d7d7;}.l{fill:#d0d2d3;}.m{fill:#fde133;}.n{fill:#4dae9b;}.o{fill:#33b3d0;}.e{fill:#2fa7c0;}.p{fill:#59c1ac;}.q{fill:#3c5f6e;}.r{fill:#345260;}</style></defs><ellipse class="i" cx="1000" cy="1968.88" rx="1000" ry="116.13"/><g><path class="h" d="M1779.77,1157.47c0,147.07-15.23,297.18-51.21,420.85h-558.25c-36.02-123.67-51.25-273.78-51.25-420.85,0-344.35,152.9-723.21,330.37-723.21s330.33,378.86,330.33,723.21Z"/><path class="f" d="M1161.7,1168.13c-5.88,0-10.66-4.77-10.66-10.66,0-222.73,62.27-460.22,158.64-605.04,3.25-4.89,9.88-6.24,14.78-2.97,4.9,3.26,6.23,9.88,2.97,14.78-92.75,139.38-155.06,377.78-155.06,593.23,0,5.88-4.77,10.66-10.66,10.66Z"/><path class="k" d="M1779.73,1157.54c0,146.94-15.21,297.14-51.16,420.78h-34.82c30.41-117.81,43.34-256.5,43.34-392.35,0-266.02-91.09-552.37-214.3-669.18h-216c8.81-10.37,17.62-19.89,26.86-28.42h231.77c123.21,116.81,214.3,403.15,214.3,669.18Z"/><path class="o" d="M1338.4,407.14c-.7-48.13-.14-96.26-.28-144.39-.04-11.63,4.39-21.19,13.96-28.08,5.51-3.97,11.77-5.92,18.52-5.94,21.86-.07,43.72-.03,65.58-.03,30.53,0,61.05-.02,91.58,0,15.34,.01,28.34,10.33,31.89,25.22,.58,2.45,.88,4.94,.88,7.46,0,47.35,0,94.71-.02,142.06,0,1.22-.18,2.44-.27,3.66-.45,.53-1.08,.53-1.69,.57-.56,.04-1.12,.02-1.68,.02-71.7,0-143.39,0-215.09-.01-1.14,0-2.37,.32-3.38-.55Z"/><path class="g" d="M1379.17,384.67c-5.82,0-10.57-4.67-10.65-10.5-.44-29.94-.39-43.44-.33-60.89,.04-10.63,.09-22.74,.03-40.99-.01-5.88,4.74-10.67,10.63-10.69,5.73,.13,10.67,4.74,10.69,10.63,.05,18.32,0,30.47-.04,41.14-.06,17.33-.12,30.74,.32,60.49,.09,5.89-4.61,10.73-10.49,10.82h-.16Z"/><path class="o" d="M1587.61,421.15v53.15c0,6.82-3.69,11.8-9.52,13.5-1.42,.43-2.7,.57-4.12,.57h-249.25c-7.82,0-13.5-5.68-13.5-13.64v-53.43c0-8.53,5.54-14.07,13.93-14.07,4.41-.14,8.81-.14,13.21-.14,.71,0,1.42,.14,1.99,.14h217.71c.71,0,1.42-.14,2.13-.14,4.4,0,8.95,0,13.36,.14,6.96,0,12.22,3.98,13.64,10.23,.28,1.28,.43,2.42,.43,3.69Z"/><path class="e" d="M1587.61,421.15v53.15c0,6.82-3.69,11.8-9.52,13.5-1.42,.43-2.7,.57-4.12,.57h-28.99v-38.79c0-1.28-.14-2.42-.43-3.69-1.42-6.25-6.68-10.23-13.64-10.23-4.41-.14-8.95-.14-13.36-.14-.71,0-1.42,.14-2.13,.14h-204.21v-14.35c0-8.53,5.54-14.07,13.93-14.07,4.41-.14,8.81-.14,13.21-.14,.71,0,1.42,.14,1.99,.14h217.71c.71,0,1.42-.14,2.13-.14,4.4,0,8.95,0,13.36,.14,6.96,0,12.22,3.98,13.64,10.23,.28,1.28,.43,2.42,.43,3.69Z"/></g><g><polygon class="l" points="845.03 668.18 832.37 581.94 867.9 569 830.13 566.68 818.27 485.85 882.06 467.03 815.55 467.32 794.53 324.05 854.86 306.46 792 306.8 767.71 141.3 803.23 128.37 765.49 126.19 754.95 54.34 879.71 54.09 908.83 54.04 972.44 53.88 1053.49 606.13 992.51 624.26 845.03 668.18"/><path class="q" d="M1035.71,819.97c-.52-11.63-2.94-23.02-4.51-34.52-2.99-21.87-6.32-43.7-9.55-65.54-2.62-17.73-5.27-35.46-7.91-53.19,1-2.25,3.13-2.16,5.08-2.45,21.87-3.21,43.75-6.3,65.59-9.77,2.5-.4,5.19-1.74,7.62,.36,3.85,26.28,7.71,52.55,11.54,78.83,4.09,28.09,8.15,56.18,12.21,84.28,.09,.65,.02,1.33,.03,2h-80.1Z"/><path class="q" d="M1092.03,654.86c-11.43,1.68-22.86,3.4-34.29,5.04-13.72,1.96-27.32,4.79-41.17,5.91-.96,.08-1.88,.59-2.82,.91-4.26,.51-8.56,.8-12.78,1.57-13.45,2.46-24.45-5.39-26.39-18.88-.89-6.21-2.05-12.39-3.08-18.58-2.7-3.54-2.5-7.89-3.1-11.93-13.68-93.59-27.32-187.18-40.96-280.77-10.92-74.94-21.8-149.89-32.58-224.85-2.42-16.84-4.95-33.66-7.27-50.52-.42-3.06,.27-5.92,.24-8.87-.85-6.76-2.08-13.51-2.46-20.3-.63-11.44,6.9-20.18,18.3-21.84,26.47-3.87,52.87-8.24,79.43-11.41,24.34-2.9,51.79,13.4,56.52,43.99,6.79,43.85,12.81,87.82,19.26,131.72,4.8,32.71,9.84,65.39,14.63,98.1,4.53,30.92,8.82,61.87,13.32,92.79,4.17,28.62,8.54,57.2,12.71,85.82,4.5,30.92,8.86,61.86,13.32,92.78,3.87,26.81,7.68,53.64,11.74,80.42,2.19,14.41-5.21,24.75-19.78,26.9-4.27,.63-8.53,1.34-12.79,2.01Z"/><path class="g" d="M971.48,354.95c-5.2,0-9.76-3.82-10.53-9.12-16.55-113.63-38.88-267.09-41.73-287.82-.8-5.83,3.27-11.21,9.1-12.01,5.85-.85,11.21,3.27,12.01,9.1,2.84,20.66,25.17,174.07,41.71,287.65,.85,5.83-3.19,11.24-9.01,12.09-.52,.07-1.04,.11-1.55,.11Z"/><path class="r" d="M1073.44,274.13c4.54,30.93,8.94,61.88,13.34,92.84,4.19,28.54,8.54,57.2,12.73,85.75,4.54,30.93,8.94,61.88,13.34,92.84,3.92,26.71,7.72,53.59,11.8,80.42,2.1,14.34-5.27,24.76-19.9,26.91-4.22,.62-8.43,1.24-12.77,2.02l-34.31,5.03c-13.66,1.86-27.31,4.73-41.08,5.88-1,0-1.93,.57-2.89,.85-4.24,.48-8.5,.82-12.69,1.58-13.56,2.56-24.48-5.31-26.46-18.81-.91-6.19-1.98-12.49-3.03-18.66-.34-.38-.55-.78-.75-1.18,2.81-.41,5.78-.71,8.62-.98,.96-.28,1.89-.85,2.89-.85,13.76-1.16,27.42-4.02,41.08-5.88l34.31-5.03c4.34-.78,8.56-1.4,12.77-2.02,14.62-2.15,22-12.57,19.9-26.91-4.08-26.83-7.88-53.71-11.8-80.42-4.4-30.95-8.8-61.9-13.34-92.84-4.19-28.54-8.54-57.2-12.73-85.75-4.4-30.95-8.8-61.9-13.34-92.84-4.67-32.78-9.74-65.36-14.54-98.12-6.44-43.87-12.45-87.8-19.33-131.74-.19-1.27-.37-2.53-.68-3.64,16.9,5.56,31.67,20.06,34.99,41.69,6.88,43.94,12.9,87.87,19.33,131.74,4.81,32.76,9.88,65.34,14.54,98.12Z"/><path class="j" d="M887.87,53.9c1.82,13.38,3.8,26.87,5.64,40.39l22.84,155.64c2.38,17.17,4.77,34.49,7.29,51.64,2.54,17.29,5.2,34.43,7.73,51.72,2.87,19.54,5.44,38.99,8.3,58.53,2.87,19.54,5.88,39.07,8.74,58.61,2.85,19.4,5.44,38.99,8.3,58.53,3.16,21.51,6.46,43,9.59,64.37,1.84,12.51,3.39,25.07,5.21,37.44-41.41,12.4-82.85,24.65-124.28,36.91-2.61,.81-3.49,.66-3.95-2.44-1.96-14.36-4.05-28.56-6.13-42.76,33.3-9.92,66.75-19.85,100.05-29.77-1.82-12.37-3.37-24.93-5.21-37.44-3.14-21.37-6.43-42.86-9.59-64.37-2.87-19.54-5.46-39.13-8.3-58.53-2.87-19.54-5.88-39.07-8.74-58.61-2.87-19.54-5.44-38.99-8.3-58.53-2.54-17.29-5.2-34.43-7.73-51.72-2.52-17.15-4.91-34.47-7.29-51.64l-22.9-156.07c7.76,.01,15.35-.1,23.11-.09,2.01,0,4.47,1.07,5.62-1.83Z"/></g><g><path class="m" d="M154.46,668c0,4.31,.23,8.38,1.13,11.78h-59.82v-85.2h59.82c-.91,3.4-1.13,7.25-1.13,11.33v62.08Z"/><path class="h" d="M591.79,737.11c-39.2,19.26-79.55,46.45-79.55,98.79v3.4h-166.54c-.91-45.09-9.52-67.75-28.78-82.7-15.41-12.24-37.61-19.26-67.98-29.23-5.44-1.81-10.88-3.4-15.86-4.99-46.22-13.14-72.51-13.82-77.49-42.6-.91-3.4-1.13-7.48-1.13-11.78v-62.08c0-4.08,.23-7.93,1.13-11.33,3.17-17.45,14.95-25.38,34.67-25.38H482.35c82.25,0,79.3,10.65,115.11,65.94,45.77,70.69,28.32,85.42-5.66,101.96Z"/><path class="m" d="M316.9,756.59l-121.36,165.84-26.29-5.4-20.46-4.12,84.27-190.56c4.97,1.56,10.52,3.27,15.92,4.97,18.62,6.11,34.1,11.08,46.9,16.91,8.1,3.69,15.06,7.67,21.03,12.36Z"/><path class="f" d="M443.75,622.5H198.39c-5.88,0-10.66-4.77-10.66-10.66s4.77-10.66,10.66-10.66h245.36c5.88,0,10.66,4.77,10.66,10.66s-4.77,10.66-10.66,10.66Z"/><path class="c" d="M316.9,756.59l-121.36,165.84-26.29-5.4,126.62-172.8c8.1,3.69,15.06,7.67,21.03,12.36Z"/><path class="k" d="M591.73,737.12c-39.08,19.18-79.44,46.47-79.44,98.76v3.41h-42.63v-3.41c0-52.29,40.36-91.23,79.44-110.42,34.11-16.63,51.44-19.61,5.68-90.38-35.81-55.28-32.83-65.94-115.11-65.94h42.63c82.28,0,79.3,10.66,115.11,65.94,45.76,70.77,28.42,85.41-5.68,102.03Z"/><path class="o" d="M654.99,1265.28v605.02c0,51.43-24.92,77.49-76.13,77.49H217.25c-51.21,0-76.13-26.06-76.13-77.49v-458.19c0-153.4,36.23-212.99,100.36-272.81,47.36-43.96,103.78-93.35,103.78-195.54v-3.85h164.73l-.23,10.2,103.77,188.07c14.05,28.1,41.47,64.35,41.47,127.12Z"/><path class="g" d="M183.75,1667.8c-5.88,0-10.66-4.77-10.66-10.66v-230.83c0-143.88,31.8-206.25,83.12-260.26,4.07-4.26,10.8-4.44,15.07-.38,4.27,4.06,4.44,10.81,.38,15.07-47.7,50.2-77.26,108.78-77.26,245.58v230.83c0,5.88-4.77,10.66-10.66,10.66Z"/><rect class="m" x="333.69" y="839.3" width="190.11" height="100.6"/><path class="e" d="M654.97,1265.33v604.94c0,51.44-24.87,77.45-76.17,77.45h-42.63c51.3,0,76.17-26,76.17-77.45v-576.52c0-62.81-27.43-99.05-41.5-127.18l-103.74-188.01,.28-10.23h-123.21c.71-7.82,1.14-16.06,1.14-24.58v-3.84h164.7l-.28,10.23,103.74,188.01c14.07,28.14,41.5,64.37,41.5,127.18Z"/><polygon class="c" points="523.8 839.3 523.8 939.91 481.17 939.91 481.17 867.72 333.66 867.72 333.66 839.3 523.8 839.3"/></g><g><path class="n" d="M811,964.99h-8.67c2.84-.57,5.83,0,8.67,0Z"/><path class="p" d="M1884.47,967.26c-.85,11.37-1.85,22.74-2.7,34.11-.28,2.84-.42,5.68-.71,8.53-.28,4.69-.71,9.38-1.14,14.07-.71,11.37-1.71,22.74-2.56,34.11-2.13,26.29-4.26,52.44-6.4,78.73-1.42,19.33-2.84,38.65-4.4,58.12-1.99,26.15-4.26,52.44-6.25,78.73-1.56,18.9-2.84,37.8-4.4,56.7-2.13,26.29-4.26,52.44-6.39,78.73-1.85,24.73-3.69,49.45-5.68,74.04-1.99,25.86-4.26,51.58-6.25,77.45-1.99,25.15-3.84,50.31-5.83,75.46-1.99,25.72-4.26,51.58-6.25,77.31-1.99,25.44-3.84,50.73-5.68,76.17-2.13,27.14-4.26,54.28-6.54,81.43-.85,11.08-1.14,22.31-3.27,33.25-5.26,26.43-28.14,43.63-56.7,43.63h-680.83c-48.46,0-97.06-.14-145.52,0-12.79,0-24.3-3.41-34.39-11.08-15.78-11.94-21.6-28.28-22.74-47.75-2.27-36.95-5.97-73.9-8.95-110.84-2.42-31.26-4.55-62.67-6.96-94.07-3.41-42.35-6.96-84.55-10.38-126.76-3.27-39.36-6.25-78.73-9.38-118.09-3.13-39.93-6.25-79.72-9.52-119.51-3.13-39.79-6.25-79.58-9.38-119.51-2.84-37.09-5.4-74.32-8.38-111.41-1.71-21.6-3.27-43.2-4.98-64.8-.42-4.69-.71-9.38-1.14-14.07-1.14-14.21-2.27-28.42-3.41-42.63,4.26-3.69,9.38-2.27,14.07-2.27,315.33-.14,630.81-.14,946.14-.14h112.83c2.42,0,4.83,0,7.25,.14,2.56,.14,4.97,.14,6.82,2.27Z"/><path class="g" d="M892.44,1647.21c-5.51,0-10.18-4.24-10.62-9.83-10.33-131.97-25.61-337.26-34.75-459.91-4.4-59.07-7.5-100.73-8.19-109.26-.47-5.87,3.9-11.01,9.77-11.48,6.05-.45,11.01,3.91,11.48,9.77,.68,8.54,3.79,50.26,8.2,109.4,9.14,122.64,24.42,327.9,34.74,459.83,.46,5.87-3.92,11-9.79,11.46-.28,.02-.56,.03-.84,.03Z"/><path class="p" d="M1884.47,967.26c-2.7,0-5.4-.14-7.96-.14H806.17c-2.98,0-5.83,.14-8.81,.14,4.26-3.69,9.38-2.27,14.07-2.27,352.99-.14,705.98-.14,1058.97-.14,2.42,0,4.83,0,7.25,.14,2.56,.14,4.97,.14,6.82,2.27Z"/><path class="p" d="M1877.64,964.99c2.56,.14,4.97,.14,6.82,2.27-2.7,0-5.4-.14-7.96-.14H806.17c-2.98,0-5.83,.14-8.81,.14,4.26-3.69,9.38-2.27,14.07-2.27,352.99-.14,705.98-.14,1058.97-.14,2.42,0,4.83,0,7.25,.14Z"/><path class="b" d="M1884.47,953.05c-1.85-2.13-4.26-2.13-6.82-2.27-2.42-.14-4.83-.14-7.25-.14-352.99,0-705.98,0-1058.97,.14-4.69,0-9.81-1.42-14.07,2.27,1.14,14.21,2.27,28.42,3.41,42.63,.43,4.69,.71,9.38,1.14,14.07h979.69s0,.09-.01,.14c-.28,4.69-.71,9.38-1.14,14.07-.71,11.37-1.71,22.74-2.56,34.11-2.13,26.29-4.26,52.44-6.4,78.73-1.42,19.33-2.84,38.65-4.4,58.12-1.99,26.15-4.26,52.44-6.25,78.73-1.56,18.9-2.84,37.8-4.4,56.7-2.13,26.29-4.26,52.44-6.39,78.73-1.85,24.73-3.69,49.45-5.68,74.04-1.99,25.86-4.26,51.58-6.25,77.45-1.99,25.15-3.84,50.31-5.83,75.46-1.99,25.72-4.26,51.58-6.25,77.31-1.99,25.44-3.84,50.73-5.68,76.17-2.13,27.14-4.26,54.28-6.54,81.43-.85,11.08-1.14,22.31-3.27,33.25-5.26,26.43-28.14,43.63-56.7,43.63h99.47c28.56,0,51.44-17.2,56.7-43.63,2.13-10.94,2.42-22.17,3.27-33.25,2.27-27.14,4.4-54.28,6.54-81.43,1.85-25.44,3.69-50.73,5.68-76.17,1.99-25.72,4.26-51.58,6.25-77.31,1.99-25.15,3.84-50.31,5.83-75.46,1.99-25.86,4.26-51.58,6.25-77.45,1.99-24.58,3.84-49.31,5.68-74.04,2.13-26.29,4.26-52.44,6.39-78.73,1.56-18.9,2.84-37.8,4.4-56.7,1.99-26.29,4.26-52.58,6.25-78.73,1.56-19.47,2.99-38.8,4.4-58.12,2.13-26.29,4.26-52.44,6.4-78.73,.85-11.37,1.85-22.74,2.56-34.11,.43-4.69,.85-9.38,1.14-14.07,.28-2.84,.43-5.68,.71-8.53,.85-11.37,1.85-22.74,2.7-34.11-.32-.36-.73-.39-1.07-.64,.36-4.52,.74-9.04,1.07-13.57Z"/><path class="p" d="M797.43,967.27c2.9-.07,5.8-.21,8.71-.21,356.77,0,713.54,0,1070.32,0,2.68,0,5.36,.14,8.04,.21,8.67-.79,17.38,.31,26.07-1.29,23.94-4.4,41.1-24.05,41.22-48.22,.18-37.55-.75-75.13,.45-112.65,1.03-32.22-24.62-54.51-54.51-54.45-272.1,.57-544.2,.33-816.3,.33-99.27,0-198.55,.53-297.81-.33-29.64-.26-55.16,21.83-54.39,54.71,.83,35.98,.15,71.99,.2,107.99,.04,31.97,21.38,53.43,53.27,53.69,4.92,.04,9.83,.14,14.75,.21Z"/><path class="g" d="M772.04,924.02c-5.88,0-10.65-4.76-10.66-10.65-.02-11.62,.05-23.25,.11-34.88,.13-23.91,.26-48.64-.31-72.87-.14-5.88,4.53-10.77,10.41-10.91,5.77,.03,10.77,4.53,10.91,10.41,.57,24.53,.44,49.42,.31,73.48-.06,11.58-.13,23.16-.11,34.74,0,5.88-4.76,10.66-10.65,10.67h-.01Z"/></g><g><polygon class="l" points="1063.52 1997.59 977.55 1997.59 970.01 1961.07 962.34 1997.59 881.77 1997.59 872.53 1932.65 863.29 1997.59 720.48 1997.59 711.95 1936.2 703.28 1997.59 538.3 1997.59 530.77 1961.07 523.23 1997.59 451.61 1997.59 469.23 1875.8 473.36 1847.38 482.31 1785.28 1032.82 1785.28 1041.78 1847.38 1063.52 1997.59"/><path class="q" d="M1075.31,1769.87c.14,16.34,.14,32.54,0,48.88-.28,14.5-12.22,27-26.71,28.28-2.27,.28-4.55,.28-6.82,.28H471.51c-14.07,0-25.15-7.25-29.7-19.47-1.42-3.69-1.85-7.53-1.85-11.37v-44.05c0-18.19,12.93-30.98,31.12-31.12h161.72c88.96,0,177.77,0,266.59,.14,2.56,0,3.41-.57,3.27-3.27-.14-10.37-.28-20.75,0-31.12,.43-12.79-5.83-21.32-16.34-27.28-6.54-3.69-13.5-4.83-20.89-4.83h-291.18c-20.75-.14-36.66-13.5-39.36-33.96-3.13-23.73,14.49-42.06,34.82-43.77,3.27-.28,6.54-.28,9.8-.28h285.92c19.47,0,38.23,3.69,55.56,12.93,28.99,15.35,48.6,38.37,56.84,70.48,2.13,8.24,2.98,16.48,2.84,25.01,0,11.08,.14,22.31,0,33.39,0,2.13,.57,2.7,2.7,2.7,20.18-.14,40.5-.14,60.82-.14,9.24,.14,17.19,3.13,23.59,10.09,4.69,5.26,7.39,11.51,7.53,18.47Z"/><path class="g" d="M751.74,1650.22h-172.23c-5.88,0-10.66-4.77-10.66-10.66s4.77-10.66,10.66-10.66h172.23c5.88,0,10.66,4.77,10.66,10.66s-4.77,10.66-10.66,10.66Z"/><path class="j" d="M1063.52,1997.53h-46.75l-17.62-121.78H469.23l4.12-28.42h568.42l21.74,150.21Z"/><path class="r" d="M1075.31,1769.87c.14,16.34,.14,32.54,0,48.88-.28,14.5-12.22,27-26.71,28.28-2.27,.28-4.55,.28-6.82,.28h-9.1v-.14c.14-16.34,.14-32.54,0-48.88-.14-6.96-2.84-13.22-7.53-18.47-6.4-6.96-14.35-9.95-23.59-10.09-20.32,0-40.64,0-60.82,.14h-83.98c-88.82-.14-177.63-.14-266.59-.14h-150.06c1.14-16.77,13.64-28.28,30.98-28.42h161.72c88.96,0,177.77,0,266.59,.14h83.98c20.18-.14,40.5-.14,60.82-.14,9.24,.14,17.19,3.13,23.59,10.09,4.69,5.26,7.39,11.51,7.53,18.47Z"/></g><g><path class="m" d="M1681.24,1185.51c-1.55,23.6-26.41,30.55-42.76,18.08-8.37-6.56-15.92-13.94-22.44-22.31-1.16-1.42-2.29-3.02-3.15-4.44-15.62-21.32-25.85-45.31-34.39-70.17-7.38-21.75-14.76-43.5-23.56-64.69-1.6-3.84-3.58-7.51-5.39-11.22-.43-.56-.73-1.42-1.42-1.55-.3-.13-.6-.13-.86-.13-1.12,.43-.99,1.55-1.12,2.55-.73,7.51,0,15.06,.39,22.61,2.29,30.55,6.56,60.93,9.54,91.35,2.42,24.17,3.97,48.46,5.52,72.63,2.29,38.79,3.58,77.42,2.42,116.08-.56,23.04-1.68,45.91-7.81,68.22-2.24,8.37-5.65,16.05-11.65,22.57-8.37,9.41-18.34,10.27-27.7,1.73-5.52-4.96-9.8-10.79-13.2-17.05-.99-1.86-1.98-3.58-2.85-5.39,0-.17-.13-.17-.13-.3-1.73-3.71-3.28-7.38-4.7-11.22-7.25-19.46-10.53-39.79-12.08-60.41-2.29-30.38-3.84-60.8-5.83-91.23-1.42-21.88-2.55-43.76-4.4-65.64-1.12-13.38-2.29-26.71-4.7-39.96-.39-1.55-.56-3.24-2.42-5.09-3.11,10.66-3.11,20.89-3.67,30.98-2.29,32.41-4.27,64.77-5.83,97.35-.43,9.06-.99,18.17-1.6,27.14,0,.39,0,.99-.13,1.38-.26,4.27-.56,8.24-.86,12.08-.99,14.5-1.81,24.73-1.99,27.01-1.55,18.9-4.53,37.5-6.82,56.27-2.55,21.75-6.65,43.07-13.2,63.82-2.55,8.24-5.7,16.18-11.35,22.74-11.52,13.08-26.02,13.2-36.98-.3-4.53-5.52-7.81-11.78-10.05-18.34-2.29-6.26-3.71-12.77-4.83-19.46-5.14-29.99-3.71-60.11-2.59-90.36,.73-17.09,1.42-34.13,2.59-51.18,1.12-18.6,2.68-37.07,4.23-55.54,1.6-18.77,3.28-37.41,4.7-56.14,.86-11.65,1.29-23.47,1.98-35.13,.13-3.11,.3-6.39-1.42-9.67l-.13,.17c-2.98,3.11-3.54,7.08-4.53,10.79-10.4,38.92-17.65,78.58-26.02,118.11-.43,2.11-.99,4.4-1.42,6.52-2.55,12.21-5.26,24.42-8.11,36.81-2.42,10.96-5.09,21.88-8.07,32.67-1.29,5.14-2.72,10.23-4.27,15.23-1.16,3.97-2.29,7.94-3.54,11.78-.43,.99-.73,1.99-1.04,2.85-.26,.99-.56,1.86-.82,2.55-4.01,11.95-9.23,23.3-16.92,33.53-4.27,5.7-8.98,10.66-15.36,14.07-9.49,5.14-19.16,3.58-26.41-4.66-2.29-2.72-4.14-5.57-5.57-8.54-.43-.69-.86-1.55-1.12-2.42-1.42-3.11-2.42-6.52-3.15-9.93-.82-3.58-1.42-7.12-1.81-10.66-3.02-24.6,.82-48.63,5.39-72.76,12.34-65.81,28.39-130.75,41.47-196.26,1.6-8.37,3.58-16.92,3.28-26.58q-.13,.13-.13,.3c-3.97,3.84-5.7,8.07-7.68,11.91-15.79,31.11-31.11,62.4-47.04,93.38-1.12,2.42-2.29,4.66-3.41,6.95-1.73,3.41-2.85,5.57-3.15,6.13-8.37,16.74-16.74,33.53-26.54,49.45-4.7,7.68-10.96,13.21-19.5,15.92-10.05,3.11-18.6-.99-22.01-10.96-.56-1.55-.99-2.98-1.42-4.53-.13-.73-.26-1.6-.43-2.29-.26-1.12-.43-2.11-.56-3.28-.13-.56-.13-1.12-.3-1.68-.26-2.42-.39-4.7-.39-7.12-.17-3.11,0-6.26,.26-9.36,2.85-34.95,13.94-67.79,25.46-100.5,25.29-71.16,54.29-140.81,81.26-211.15,9.54-24.73,14.5-50.32,17.78-76.47,3.84-30.55,5.83-61.1,7.68-91.66,.26-5.83-.43-11.78,1.12-17.48,3.15-11.78,13.08-20.02,25.29-20.02h195.14c.43,0,.69,0,1.12,.13,.26,0,.52,0,.82,.04h.39c1.21,.13,2.46,.35,3.62,.69,3.11,.69,6.26,2.11,9.11,4.1,1.42,.86,2.85,1.99,4.1,3.28,1.17,.99,2.16,1.99,2.98,3.11,.73,.86,1.29,1.73,2.03,2.72,.13,.3,.26,.43,.39,.69,.6,.86,1.17,1.86,1.6,2.72,.69,1.42,1.42,2.85,1.81,4.4,.17,.3,.17,.56,.3,.86v.26c.56,1.6,.86,3.15,1.12,4.83,3.41,24.73,8.42,49.02,15.79,72.93,3.84,12.08,9.67,23.13,15.19,34.39,25.03,50.45,44.62,103.01,61.54,156.73,13.94,44.88,26.02,90.23,33.7,136.71,2.42,14.2,4.66,28.39,3.67,42.89Z"/><path class="g" d="M1282.75,1020.41c-1.3,0-2.62-.24-3.9-.75-5.47-2.15-8.17-8.34-6.01-13.82l6.95-17.61c9.51-24.11,19.03-48.21,28.31-72.4,8.08-20.94,13.37-43.75,17.15-73.98,3.67-29.17,5.61-58.16,7.28-85.34,.36-5.88,5.45-10.52,11.29-9.98,5.87,.36,10.34,5.42,9.98,11.29-1.69,27.53-3.66,56.9-7.4,86.7-3.96,31.58-9.8,56.67-18.4,78.97-9.29,24.23-18.83,48.4-28.38,72.58l-6.94,17.6c-1.65,4.19-5.67,6.75-9.92,6.75Z"/><path class="d" d="M1300.41,1086.76c-3.98,3.84-5.68,8.1-7.67,11.94-15.77,31.12-31.12,62.38-47.04,93.36-1.13,2.42-2.27,4.69-3.41,6.96-1.7,3.41-2.84,5.54-3.13,6.11-8.38,16.77-16.77,33.54-26.57,49.45-4.69,7.67-10.94,13.22-19.47,15.92-10.09,3.13-18.61-.99-22.03-10.94-.57-1.56-.99-2.98-1.42-4.55-.14-.71-.28-1.56-.43-2.27-.28-1.14-.43-2.13-.57-3.27-.14-.57-.14-1.14-.28-1.71-.28-2.42-.43-4.69-.43-7.11,11.9,4.22,20.72-.47,32.49-15.51,8.76-11.19,17.54-31.2,25.12-43.26,30.49-48.52,43.37-71.14,74.83-95.13Z"/><path class="d" d="M1378.56,1133.37c-2.98,3.13-3.55,7.11-4.55,10.8-10.37,38.94-17.62,78.58-26,118.09-.42,2.13-.99,4.41-1.42,6.54-2.56,12.22-5.26,24.44-8.1,36.81-2.41,10.94-5.11,21.88-8.1,32.68-1.28,5.12-2.7,10.23-4.26,15.21-1.14,3.98-2.28,7.96-3.55,11.79-.43,.99-.71,1.99-1,2.84-.28,.99-.57,1.85-.85,2.56-3.98,11.94-9.24,23.31-16.91,33.54-4.26,5.68-8.95,10.66-15.35,14.07-9.52,5.12-19.18,3.55-26.43-4.69-2.27-2.7-4.12-5.54-5.54-8.53-.42-.71-.85-1.56-1.13-2.42-1.42-3.13-2.42-6.54-3.13-9.95,2.56-.43,13.75-1.42,16.45-2.84,6.4-3.41,11.08-8.38,15.35-14.07,7.67-10.23,12.93-21.6,16.91-33.54,3.23-9.61,8.75-29.83,15.61-54.84,22.51-82.11,43.59-139.01,62.02-154.05Z"/><path class="d" d="M1466.53,1130.53c-3.13,10.66-3.13,20.89-3.69,30.98-2.27,32.4-4.26,64.8-5.83,97.34-.43,9.09-1,18.19-1.56,27.14,0,.43,0,.99-.14,1.42-.28,4.26-.57,8.24-.85,12.08-.99,14.5-1.85,24.73-1.99,27-1.56,18.9-4.55,37.52-6.82,56.27-2.56,21.74-6.68,43.06-13.21,63.81-2.56,8.24-5.68,16.2-11.37,22.74-11.51,13.07-26.01,13.22-36.95-.28-4.55-5.54-7.82-11.79-10.09-18.33,6.4,0,18.51-3.27,24.19-9.81,5.68-6.54,8.81-14.5,11.37-22.74,6.54-20.75,10.66-42.06,13.21-63.81,2.27-18.76,5.26-37.37,6.82-56.27,.16-1.93,.38-4.87,.71-8.64,7.38-83.12,19.43-134.23,36.2-158.91Z"/><path class="d" d="M1564.01,1334.31c-.57,23.02-1.71,45.9-7.82,68.21-2.27,8.38-5.68,16.06-11.65,22.59-8.38,9.38-18.33,10.23-27.71,1.71-5.54-4.97-9.8-10.8-13.21-17.05-1-1.85-1.99-3.55-2.84-5.4,0-.14-.14-.14-.14-.28,5.4,.57,14.97-1.99,19.8-7.39,5.97-6.54,9.38-14.21,11.65-22.59,6.11-22.31,7.25-45.19,7.82-68.21,1.14-38.65-.38-77.29-2.42-116.1-6.38-121.44,9.19-160.49,9.06-160.02-.12,.46-.38,1.36-.45,1.86-.71,7.53,0,15.06,.43,22.59,2.27,30.55,6.54,60.96,9.52,91.37,2.41,24.16,3.98,48.46,5.54,72.62,2.27,38.8,3.55,77.45,2.42,116.1Z"/><path class="d" d="M1681.24,1185.51c-1.55,23.6-26.41,30.55-42.76,18.08-8.37-6.56-15.92-13.94-22.44-22.31-1.16-1.42-2.29-3.02-3.15-4.44,16.23,9.97,42.85,2.59,44.27-19.72,.99-14.5-26.97-134.72-40.91-179.65-16.92-53.73-36.51-92.09-61.54-142.53-5.52-11.22-11.35-36.51-15.19-48.59-7.38-23.6-12.21-47.68-15.62-72.15v-.04c.13,0,.26,0,.39,.04,1.21,.13,2.46,.35,3.62,.69,3.11,.69,6.26,2.11,9.11,4.1,1.42,.86,2.85,1.99,4.1,3.28,1.17,.99,2.16,1.99,2.98,3.11,.73,.86,1.29,1.73,2.03,2.72,.13,.3,.26,.43,.39,.69,.6,.86,1.17,1.86,1.6,2.72,.69,1.42,1.42,2.85,1.81,4.4,.17,.3,.17,.56,.3,.86v.26c.56,1.6,.86,3.15,1.12,4.83,3.41,24.73,8.42,49.02,15.79,72.93,3.84,12.08,9.67,23.13,15.19,34.39,25.03,50.45,44.62,103.01,61.54,156.73,13.94,44.88,26.02,90.23,33.7,136.71,2.42,14.2,4.66,28.39,3.67,42.89Z"/></g></svg>